# xmcd CD database file
# Copyright (C) 1996 Ti Kan
#
# Track frame offsets:
#	182
#	12135
#	24787
#	39677
#	58280
#	74352
#	89840
#	101755
#
# Disc length: 1513 seconds
#
# Revision: 1
# Processed by: cddbd v1.4b41PL1 Copyright (c) Steve Scherf et al.
# Submitted via: EasyCD 2.21 - (C) 1996 Greg Leichner
#
DISCID=6905e708
DTITLE=Conway Twiity - Gold
DYEAR=1900
DGENRE=
TTITLE0=Linda On My Mind
TTITLE1=This Time I've Hurt Her More Than She Loves Me
TTITLE2=I Was The First
TTITLE3=Riverboart Rambler
TTITLE4=The Rose
TTITLE5=It Turns Me Inside Out
TTITLE6=I Can't See Me Without You
TTITLE7=Southern Comfort
EXTD=
EXTT0=
EXTT1=
EXTT2=
EXTT3=
EXTT4=
EXTT5=
EXTT6=
EXTT7=
PLAYORDER=
